<svg width="512" height="512" viewBox="0 0 512 512" fill="none" xmlns="http://www.w3.org/2000/svg">
<g clip-path="url(#clip0_3_90)">
<path d="M1 377C1 262.646 1 148.292 1.29597 33.784C1.85184 33.4264 2.24991 33.2754 2.35188 33.0103C8.22168 17.7555 18.0677 6.75297 34.5201 2.71644C34.8034 2.64694 34.8454 1.59403 35 1C108.688 1 182.375 1 256.543 1.2616C257.039 1.69701 257.056 1.87081 257.05 2.50996C256.96 12.505 256.892 22.0347 256.376 31.617C186.614 31.6808 117.301 31.6824 47.9871 31.7129C36.8254 31.7178 31.0116 37.5248 31.0069 48.5953C30.9908 87.0844 30.9863 125.574 31.0078 164.063C31.0155 177.722 31.11 191.382 31.0958 205.503C31.0177 258.11 30.9952 310.255 31.012 362.4C31.015 371.713 36.739 378.427 45.7094 378.619C59.8547 378.921 74.0141 378.571 88.6166 378.583C106.353 378.613 123.641 378.558 141.392 378.612C158.977 378.654 176.1 378.585 193.669 378.606C214.994 378.699 235.873 378.704 256.822 379.191C256.891 389.353 256.889 399.032 256.431 408.777C232.945 408.925 209.914 409.01 186.424 409.053C138.513 409.008 91.0613 409.006 43.6096 408.992C41.9525 408.992 40.2339 409.145 38.6478 408.778C21.5361 404.819 8.90146 395.558 2.93701 378.427C2.71949 377.802 1.66463 377.469 1 377Z" fill="#0189FF"/>
<path d="M256.888 408.712C256.889 399.032 256.891 389.353 256.833 378.984C256.775 378.295 257.043 377.983 257.506 378.046C278.698 378.069 299.428 378.027 320.525 377.986C321.375 378.088 321.859 378.19 322.693 378.437C356.355 378.641 389.667 378.71 422.979 378.725C424.618 378.726 426.256 378.251 428.368 378.04C441.821 378.104 454.803 378.274 467.777 378.03C470.591 377.977 473.719 376.981 476.106 375.475C481.52 372.055 483.026 366.523 483.021 360.355C482.983 313.428 483.007 266.501 482.99 219.574C482.988 214.753 482.846 209.931 482.864 204.637C482.973 152.177 483.007 100.189 482.982 48.2007C482.977 36.7973 478.005 31.9556 466.526 31.9522C422.369 31.939 378.213 31.9311 334.056 31.9523C308.397 31.9645 282.739 32.0357 256.992 31.9635C256.904 31.8465 256.824 31.5644 256.824 31.5644C256.892 22.0347 256.96 12.505 257.511 2.49506C327.419 2.00983 396.844 2.01422 466.269 1.95787C468.513 1.95605 470.756 1.3333 473 1C476.031 0.999999 479.061 0.999999 482.3 1.3415C482.834 2.04476 483.095 2.6142 483.495 2.73821C497.158 6.97536 506.381 15.8 511.19 29.2852C511.333 29.6875 512.376 29.7689 513 30C513 146.354 513 262.708 512.656 379.314C511.875 380.215 511.278 380.808 511.026 381.523C504.823 399.1 488.449 409.091 473.607 408.602C472.287 408.248 471.303 408.018 470.32 408.018C423.32 408 376.32 407.993 329.32 408.039C327.896 408.04 326.472 408.608 324.577 408.941C301.775 409.021 279.443 409.071 257.054 409.02C256.997 408.918 256.888 408.712 256.888 408.712Z" fill="#295FCC"/>
<path d="M132.469 513C131.276 512.103 130.702 510.999 129.802 510.344C124.03 506.141 121.606 499.346 123.672 492.802C125.94 485.618 130.874 482.016 138.542 482.004C150.686 481.985 162.831 481.993 175.909 482.012C179.991 482.059 183.14 482.095 186.288 482.105C209.819 482.179 233.35 482.248 256.912 482.766C256.986 492.795 257.028 502.376 257.046 512.217C257.015 512.652 257.007 512.826 257 513C215.646 513 174.292 513 132.469 513Z" fill="#0089FF"/>
<path d="M257.07 511.957C257.028 502.376 256.986 492.795 256.966 482.659C256.989 482.105 257.104 481.895 257.561 481.933C284.05 481.927 310.082 481.884 336.113 481.842C336.113 481.842 336.129 481.972 336.383 482.252C351.14 482.675 365.642 482.817 380.144 482.959C386.496 483.693 389.338 488.335 390.718 493.614C392.257 499.501 390.44 504.905 385.77 509.074C384.441 510.26 382.951 511.265 381.767 512.677C381.25 513 380.5 513 379.056 512.733C376.388 512.31 374.415 512.022 372.441 512.02C333.984 511.979 295.527 511.971 257.07 511.957Z" fill="#295FCC"/>
<path d="M472.531 1C470.756 1.3333 468.513 1.95605 466.269 1.95787C396.844 2.01422 327.419 2.00983 257.533 2.02971C257.056 1.87081 257.039 1.69701 257.011 1.2616C328.688 0.999999 400.375 0.999999 472.531 1Z" fill="#196FE0"/>
<path d="M257.046 512.218C295.527 511.972 333.984 511.979 372.441 512.02C374.415 512.022 376.388 512.311 378.681 512.733C338.646 513 298.292 513 257.469 513C257.007 512.826 257.015 512.652 257.046 512.218Z" fill="#196FE0"/>
<path d="M257.043 377.983C257.043 377.983 256.775 378.295 256.764 378.502C235.873 378.704 214.994 378.699 193.93 378.433C195.185 375.386 197.166 372.735 197.91 369.773C198.617 366.958 198.063 363.818 198.005 360.822C197.704 345.16 185.611 330.249 170.216 328.254C160.584 327.006 150.693 327.756 140.455 327.574C132.33 327.571 124.663 327.439 117.006 327.669C103.744 328.068 93.9289 334.42 87.3 345.739C83.0916 352.925 82.8008 360.91 82.9577 368.986C83.0393 373.182 84.4256 376.423 88.1675 378.497C74.0141 378.571 59.8547 378.921 45.7094 378.619C36.739 378.427 31.015 371.713 31.012 362.4C30.9952 310.255 31.0177 258.11 31.5536 205.493C51.1112 204.979 70.1419 204.936 89.6303 204.905C107.028 204.921 123.967 204.928 141.378 205.025C158.792 204.999 175.735 204.881 193.163 204.828C214.747 204.966 235.847 205.039 256.97 205.568C257.01 263.344 257.027 320.664 257.043 377.983ZM141.885 322.035C161.147 321.538 175.646 305.994 175.158 286.363C174.693 267.679 159.357 252.721 140.172 253.009C121.036 253.287 105.856 268.82 106.014 287.963C106.17 306.969 121.762 322.113 141.885 322.035Z" fill="white"/>
<path d="M89.1727 204.894C70.1419 204.937 51.1112 204.979 31.6227 205.031C31.11 191.382 31.0155 177.722 31.0078 164.063C30.9863 125.574 30.9908 87.0845 31.0069 48.5954C31.0116 37.5249 36.8254 31.7179 47.9871 31.713C117.301 31.6825 186.614 31.6809 256.376 31.6171C256.825 31.5645 256.904 31.8465 256.948 32.425C256.986 89.0456 256.978 145.088 256.983 201.13C256.983 202.453 257.129 203.777 257.144 205.152C257.081 205.204 256.946 205.112 256.946 205.112C235.847 205.039 214.747 204.966 193.373 204.552C196.833 202.101 198.336 198.868 198.091 194.641C197.946 192.15 198.065 189.646 198.017 187.148C197.708 171.027 186.646 156.753 170.766 154.198C161.022 152.631 150.894 153.452 140.477 153.144C132.866 153.085 125.7 152.795 118.572 153.187C114.156 153.43 109.579 154.117 105.452 155.632C91.6673 160.695 83.1887 173.412 83.0083 188.448C82.9331 194.719 81.9059 201.366 89.1727 204.894ZM140.006 78.814C120.09 79.5822 105.668 94.6134 106.021 114.235C106.356 132.823 122.134 147.926 141.911 147.9C160.338 147.548 175.376 131.644 175.186 112.71C174.993 93.4732 159.949 78.6175 140.006 78.814Z" fill="#CCEEFF"/>
<path d="M256.935 482.212C233.35 482.248 209.819 482.179 186.288 482.105C183.14 482.095 179.991 482.059 176.37 481.979C178.18 467.775 180.526 453.638 182.722 439.478C184.246 429.649 185.564 419.788 186.929 409.517C209.914 409.009 232.945 408.925 256.431 408.777C256.888 408.712 256.997 408.918 257.014 409.476C257.055 433.987 257.079 457.941 257.104 481.895C257.104 481.895 256.989 482.105 256.935 482.212Z" fill="#004EB7"/>
<path d="M88.6166 378.583C84.4256 376.423 83.0393 373.182 82.9577 368.986C82.8008 360.91 83.0916 352.925 87.3 345.739C93.9289 334.42 103.744 328.068 117.006 327.669C124.663 327.439 132.33 327.571 140.465 328.071C140.934 345.236 140.931 361.869 140.928 378.503C123.641 378.558 106.353 378.613 88.6166 378.583Z" fill="#FF9101"/>
<path d="M141.392 378.612C140.931 361.869 140.934 345.236 140.927 328.106C150.693 327.756 160.584 327.006 170.216 328.254C185.611 330.249 197.704 345.16 198.005 360.822C198.063 363.818 198.617 366.958 197.91 369.773C197.166 372.735 195.185 375.386 193.484 378.345C176.1 378.585 158.977 378.653 141.392 378.612Z" fill="#FC661E"/>
<path d="M257.506 378.046C257.027 320.664 257.01 263.344 256.97 205.568C256.946 205.112 257.081 205.204 257.599 205.145C279.479 205.017 300.841 204.948 322.649 204.946C340.096 205 357.096 204.987 374.544 205.09C391.953 205.098 408.915 204.992 426.348 204.966C445.469 205.068 464.119 205.089 482.769 205.109C482.846 209.931 482.988 214.753 482.99 219.574C483.007 266.501 482.983 313.428 483.021 360.355C483.026 366.523 481.52 372.055 476.106 375.475C473.719 376.981 470.591 377.977 467.777 378.03C454.803 378.274 441.821 378.104 428.547 377.733C432.43 373.68 431.828 368.698 431.754 363.918C431.48 346.237 420.858 331.32 404.697 328.534C394.712 326.812 384.253 327.842 373.536 327.612C364.913 327.639 356.742 327.35 348.614 327.817C333.48 328.687 320.442 339.461 317.487 354.284C315.912 362.18 313.47 370.762 320.159 377.986C299.429 378.027 278.698 378.069 257.506 378.046ZM374.866 322.084C394.244 321.504 409.538 305.541 408.867 286.596C408.194 267.62 392.364 252.427 373.142 253.004C353.834 253.718 338.749 269.424 339.324 288.215C339.908 307.292 355.359 322.309 374.866 322.084Z" fill="#01215A"/>
<path d="M322.203 204.878C300.841 204.948 279.479 205.017 257.663 205.093C257.129 203.777 256.983 202.453 256.983 201.13C256.978 145.088 256.986 89.0456 257.036 32.542C282.739 32.0358 308.397 31.9645 334.056 31.9523C378.213 31.9311 422.369 31.939 466.526 31.9522C478.005 31.9556 482.977 36.7973 482.982 48.2007C483.007 100.189 482.973 152.177 482.864 204.637C464.119 205.089 445.469 205.068 426.566 204.698C431.996 201.204 431.859 195.766 431.798 190.373C431.577 170.74 420.089 156.145 401.408 153.515C392.432 152.251 383.14 153.241 373.526 153.158C365.584 153.102 358.1 152.887 350.632 153.137C330.988 153.795 316.601 169.008 316.167 189.201C316.036 195.313 315.848 201.321 322.203 204.878ZM374.839 147.904C390.143 147.813 403.877 136.785 407.696 121.522C411.498 106.329 404.444 90.0749 390.908 82.9073C385.619 80.1061 380.181 77.8575 373.095 78.8952C356.358 78.3649 339.294 92.7908 339.204 113.677C339.124 132.398 354.725 147.404 374.839 147.904Z" fill="#FF405C"/>
<path d="M257.561 481.933C257.079 457.941 257.055 433.987 257.071 409.577C279.443 409.071 301.775 409.021 324.841 409.001C325.751 409.068 325.928 409.103 326.105 409.139C327.176 417.57 328.156 426.014 329.34 434.429C330.821 444.945 332.493 455.433 334.035 465.941C334.771 470.955 335.397 475.986 336.093 481.426C310.082 481.884 284.05 481.927 257.561 481.933Z" fill="#192B80"/>
<path d="M374.007 327.637C384.253 327.842 394.712 326.812 404.697 328.534C420.858 331.32 431.48 346.237 431.754 363.918C431.828 368.698 432.43 373.68 428.073 377.69C426.256 378.251 424.618 378.726 422.979 378.725C389.667 378.71 356.355 378.64 323.119 378.402C337.672 378.215 352.15 378.207 366.628 378.199C373.994 378.195 373.996 378.196 373.998 371.071C374.002 356.593 374.004 342.115 374.007 327.637Z" fill="#01E9CD"/>
<path d="M373.536 327.612C374.004 342.115 374.002 356.593 373.998 371.071C373.996 378.196 373.994 378.195 366.628 378.199C352.15 378.207 337.672 378.215 322.769 378.257C321.859 378.19 321.375 378.088 320.525 377.986C313.47 370.762 315.912 362.18 317.487 354.284C320.442 339.461 333.48 328.687 348.614 327.817C356.742 327.35 364.913 327.639 373.536 327.612Z" fill="#79FEE3"/>
<path d="M326.564 409.081C325.928 409.103 325.751 409.068 325.312 408.972C326.472 408.608 327.896 408.04 329.32 408.039C376.32 407.993 423.32 408 470.32 408.018C471.303 408.019 472.287 408.248 473.607 408.602C447.626 408.888 421.308 408.96 394.991 408.995C372.335 409.026 349.679 409.016 326.564 409.081Z" fill="#1E68D9"/>
<path d="M379.89 482.6C365.642 482.817 351.14 482.675 336.319 482.266C350.545 482.08 365.091 482.16 379.89 482.6Z" fill="#1E6BDB"/>
<path d="M89.6303 204.905C81.9059 201.366 82.9331 194.719 83.0083 188.448C83.1887 173.412 91.6673 160.695 105.452 155.632C109.579 154.117 114.156 153.43 118.572 153.187C125.7 152.795 132.866 153.085 140.479 153.599C140.931 171.052 140.919 187.993 140.907 204.934C123.967 204.928 107.028 204.921 89.6303 204.905Z" fill="#FE415D"/>
<path d="M141.378 205.025C140.919 187.993 140.931 171.052 140.941 153.656C150.894 153.452 161.022 152.63 170.766 154.198C186.646 156.753 197.708 171.027 198.017 187.148C198.065 189.645 197.946 192.15 198.091 194.641C198.336 198.868 196.833 202.101 192.888 204.486C175.735 204.881 158.792 204.999 141.378 205.025Z" fill="#C1136B"/>
<path d="M141.02 321.963C121.762 322.113 106.17 306.969 106.014 287.963C105.856 268.82 121.036 253.287 140.581 253.51C141 276.662 141.01 299.313 141.02 321.963Z" fill="#FFCC99"/>
<path d="M141.452 321.999C141.01 299.313 141 276.662 141.018 253.55C159.357 252.721 174.693 267.679 175.158 286.363C175.646 305.994 161.147 321.538 141.452 321.999Z" fill="#FFB367"/>
<path d="M141.082 147.794C122.134 147.926 106.356 132.823 106.021 114.235C105.668 94.6133 120.09 79.5821 140.467 79.3064C140.979 102.464 141.031 125.129 141.082 147.794Z" fill="#FFCC99"/>
<path d="M141.496 147.847C141.031 125.129 140.979 102.464 140.903 79.3155C159.949 78.6174 174.993 93.4732 175.186 112.71C175.376 131.644 160.338 147.548 141.496 147.847Z" fill="#FFB367"/>
<path d="M322.649 204.946C315.848 201.321 316.036 195.313 316.167 189.201C316.601 169.008 330.988 153.795 350.632 153.137C358.1 152.887 365.584 153.102 373.528 153.611C374.03 171.069 374.064 188.022 374.097 204.974C357.096 204.987 340.096 205 322.649 204.946Z" fill="#FFD92D"/>
<path d="M374.544 205.09C374.064 188.022 374.03 171.069 373.994 153.663C383.14 153.241 392.432 152.251 401.408 153.515C420.089 156.145 431.577 170.74 431.798 190.373C431.859 195.766 431.996 201.204 426.095 204.618C408.915 204.992 391.953 205.098 374.544 205.09Z" fill="#FDBF01"/>
<path d="M374 253.131C392.364 252.427 408.194 267.62 408.867 286.596C409.538 305.541 394.244 321.504 374.433 321.538C374 298.371 374 275.751 374 253.131Z" fill="#FD9833"/>
<path d="M373.571 253.067C374 275.751 374 298.371 373.999 321.454C355.359 322.309 339.908 307.292 339.324 288.215C338.749 269.424 353.834 253.718 373.571 253.067Z" fill="#FDA54D"/>
<path d="M373.973 78.9037C380.181 77.8575 385.619 80.1062 390.908 82.9073C404.444 90.0749 411.498 106.329 407.696 121.522C403.877 136.786 390.143 147.813 374.417 147.395C373.988 124.225 373.981 101.565 373.973 78.9037Z" fill="#FF9933"/>
<path d="M373.534 78.8994C373.981 101.565 373.988 124.225 373.993 147.334C354.725 147.404 339.124 132.398 339.204 113.677C339.294 92.7908 356.358 78.3648 373.534 78.8994Z" fill="#FFA54D"/>
</g>
<defs>
<clipPath id="clip0_3_90">
<rect width="512" height="512" fill="white"/>
</clipPath>
</defs>
</svg>
